# xmcd
#
# Track frame offsets:
#	150
#	20304
#	41551
#	66505
#	92546
#	114236
#	137115
#	161875
#	180559
#	199163
#	223797
#	247612
#	272914
#
# Disc length: 3852 seconds
#
# Revision: 1890464683
# Processed by: cddbd v1.5.2PL0 Copyright (c) Steve Scherf et al.
# Submitted via: EZCDAudioConverter 8.0.2.1
#
DISCID=b60f0a0d
DTITLE=Toàn Nguyễn - Hà Nội Và Tôi
DYEAR=2009
DGENRE=Contemporary Pop
TTITLE0=Nhớ mùa thu Hà Nội
TTITLE1=Nỗi nhớ mùa đông
TTITLE2=Đêm mùa đông Hà Nội
TTITLE3=Hà Nội đêm trở gió
TTITLE4=Hà Nội mùa thu
TTITLE5=Hà Nội mùa vắng những cơn mưa
TTITLE6=Hà Nội ngày trở về
TTITLE7=Hoa sữa
TTITLE8=Im lặng đêm Hà Nội
TTITLE9=lãng đãng chiều đông Hà Nội
TTITLE10=Mơ về nơi xa lắm
TTITLE11=Hà Nội Và Tôi
TTITLE12=Một dại khờ, một tôi
EXTD=
EXTT0=
EXTT1=
EXTT2=
EXTT3=
EXTT4=
EXTT5=
EXTT6=
EXTT7=
EXTT8=
EXTT9=
EXTT10=
EXTT11=
EXTT12=
PLAYORDER=
